<svg width="62" height="43" viewBox="0 0 62 43" fill="none" xmlns="http://www.w3.org/2000/svg">
<path d="M7.928 18.384C6.376 18.384 5.008 18.032 3.824 17.328C2.64 16.608 1.712 15.592 1.04 14.28C0.368 12.952 0.032 11.36 0.032 9.504C0.032 7.68 0.36 6.104 1.016 4.776C1.672 3.432 2.592 2.4 3.776 1.68C4.96 0.944 6.352 0.576 7.952 0.576C10.128 0.576 11.816 1.12 13.016 2.208C14.216 3.28 15 4.784 15.368 6.72L12.104 6.888C11.896 5.768 11.448 4.888 10.76 4.248C10.072 3.608 9.136 3.288 7.952 3.288C6.992 3.288 6.16 3.544 5.456 4.056C4.752 4.568 4.208 5.288 3.824 6.216C3.44 7.144 3.248 8.24 3.248 9.504C3.248 10.784 3.44 11.888 3.824 12.816C4.224 13.728 4.776 14.432 5.48 14.928C6.184 15.424 7 15.672 7.928 15.672C9.192 15.672 10.168 15.328 10.856 14.64C11.56 13.936 12.008 12.976 12.2 11.76L15.464 11.928C15.24 13.256 14.808 14.408 14.168 15.384C13.528 16.344 12.68 17.088 11.624 17.616C10.584 18.128 9.352 18.384 7.928 18.384ZM17.8363 18V5.184H20.7163L20.8363 8.736L20.5723 8.688C20.7643 7.456 21.1243 6.568 21.6523 6.024C22.1963 5.464 22.9323 5.184 23.8603 5.184H25.0363V7.824H23.8363C23.1803 7.824 22.6363 7.92 22.2043 8.112C21.7723 8.304 21.4443 8.608 21.2203 9.024C21.0123 9.424 20.9083 9.952 20.9083 10.608V18H17.8363ZM30.5094 18.288C29.1654 18.288 28.0854 17.984 27.2694 17.376C26.4534 16.752 26.0454 15.888 26.0454 14.784C26.0454 13.68 26.3894 12.816 27.0774 12.192C27.7654 11.568 28.8134 11.12 30.2214 10.848L34.4694 10.008C34.4694 9.096 34.2614 8.416 33.8454 7.968C33.4294 7.504 32.8134 7.272 31.9974 7.272C31.2614 7.272 30.6774 7.448 30.2454 7.8C29.8294 8.136 29.5414 8.624 29.3814 9.264L26.2614 9.12C26.5174 7.76 27.1414 6.72 28.1334 6C29.1254 5.264 30.4134 4.896 31.9974 4.896C33.8214 4.896 35.1974 5.36 36.1254 6.288C37.0694 7.2 37.5414 8.512 37.5414 10.224V14.88C37.5414 15.216 37.5974 15.448 37.7094 15.576C37.8374 15.704 38.0214 15.768 38.2614 15.768H38.6694V18C38.5734 18.032 38.4134 18.056 38.1894 18.072C37.9814 18.088 37.7654 18.096 37.5414 18.096C37.0134 18.096 36.5414 18.016 36.1254 17.856C35.7094 17.68 35.3894 17.384 35.1654 16.968C34.9414 16.536 34.8294 15.952 34.8294 15.216L35.0934 15.408C34.9654 15.968 34.6854 16.472 34.2534 16.92C33.8374 17.352 33.3094 17.688 32.6694 17.928C32.0294 18.168 31.3094 18.288 30.5094 18.288ZM31.1334 16.056C31.8214 16.056 32.4134 15.92 32.9094 15.648C33.4054 15.376 33.7894 15 34.0614 14.52C34.3334 14.04 34.4694 13.472 34.4694 12.816V12.096L31.1574 12.768C30.4694 12.912 29.9734 13.128 29.6694 13.416C29.3814 13.688 29.2374 14.048 29.2374 14.496C29.2374 14.992 29.3974 15.376 29.7174 15.648C30.0534 15.92 30.5254 16.056 31.1334 16.056ZM45.1441 18C43.8641 18 42.9201 17.704 42.3121 17.112C41.7201 16.52 41.4241 15.592 41.4241 14.328V2.184H44.4961V14.04C44.4961 14.632 44.6241 15.048 44.8801 15.288C45.1361 15.512 45.5361 15.624 46.0801 15.624H47.8801V18H45.1441ZM39.4081 7.56V5.184H47.8801V7.56H39.4081ZM55.4662 18.288C54.1862 18.288 53.0742 18.016 52.1302 17.472C51.1862 16.912 50.4582 16.128 49.9462 15.12C49.4342 14.112 49.1782 12.936 49.1782 11.592C49.1782 10.248 49.4342 9.08 49.9462 8.088C50.4582 7.08 51.1782 6.296 52.1062 5.736C53.0502 5.176 54.1462 4.896 55.3942 4.896C56.6102 4.896 57.6742 5.168 58.5862 5.712C59.5142 6.256 60.2262 7.04 60.7222 8.064C61.2182 9.088 61.4662 10.32 61.4662 11.76V12.456H52.3702C52.4342 13.576 52.7382 14.424 53.2822 15C53.8422 15.56 54.5782 15.84 55.4902 15.84C56.1782 15.84 56.7462 15.688 57.1942 15.384C57.6582 15.064 57.9782 14.624 58.1542 14.064L61.2982 14.256C60.9462 15.504 60.2502 16.488 59.2102 17.208C58.1862 17.928 56.9382 18.288 55.4662 18.288ZM52.3702 10.392H58.2982C58.2342 9.352 57.9382 8.584 57.4102 8.088C56.8822 7.576 56.2102 7.32 55.3942 7.32C54.5782 7.32 53.8982 7.584 53.3542 8.112C52.8262 8.64 52.4982 9.4 52.3702 10.392ZM7.928 42.384C6.376 42.384 5.008 42.032 3.824 41.328C2.64 40.608 1.712 39.592 1.04 38.28C0.368 36.952 0.032 35.36 0.032 33.504C0.032 31.68 0.36 30.104 1.016 28.776C1.672 27.432 2.592 26.4 3.776 25.68C4.96 24.944 6.352 24.576 7.952 24.576C10.128 24.576 11.816 25.12 13.016 26.208C14.216 27.28 15 28.784 15.368 30.72L12.104 30.888C11.896 29.768 11.448 28.888 10.76 28.248C10.072 27.608 9.136 27.288 7.952 27.288C6.992 27.288 6.16 27.544 5.456 28.056C4.752 28.568 4.208 29.288 3.824 30.216C3.44 31.144 3.248 32.24 3.248 33.504C3.248 34.784 3.44 35.888 3.824 36.816C4.224 37.728 4.776 38.432 5.48 38.928C6.184 39.424 7 39.672 7.928 39.672C9.192 39.672 10.168 39.328 10.856 38.64C11.56 37.936 12.008 36.976 12.2 35.76L15.464 35.928C15.24 37.256 14.808 38.408 14.168 39.384C13.528 40.344 12.68 41.088 11.624 41.616C10.584 42.128 9.352 42.384 7.928 42.384ZM20.8379 42C19.9099 42 19.1659 41.76 18.6059 41.28C18.0459 40.8 17.7659 40.032 17.7659 38.976V24.96H20.8379V38.664C20.8379 38.984 20.9179 39.224 21.0779 39.384C21.2539 39.544 21.4939 39.624 21.7979 39.624H22.7339V42H20.8379ZM28.9274 42.288C27.6314 42.288 26.5994 41.864 25.8314 41.016C25.0794 40.152 24.7034 38.96 24.7034 37.44V29.184H27.7754V36.672C27.7754 37.744 27.9514 38.536 28.3034 39.048C28.6714 39.544 29.2234 39.792 29.9594 39.792C30.7914 39.792 31.4314 39.52 31.8794 38.976C32.3434 38.416 32.5754 37.608 32.5754 36.552V29.184H35.6474V42H32.8394L32.7674 38.472L33.1514 38.592C32.9594 39.808 32.5034 40.728 31.7834 41.352C31.0634 41.976 30.1114 42.288 28.9274 42.288ZM45.6774 42.288C44.7814 42.288 43.9974 42.096 43.3254 41.712C42.6694 41.328 42.1574 40.792 41.7894 40.104L41.7174 42H38.7894V24.96H41.8614V31.008C42.2134 30.416 42.7174 29.92 43.3734 29.52C44.0294 29.104 44.7974 28.896 45.6774 28.896C46.7814 28.896 47.7334 29.176 48.5334 29.736C49.3494 30.28 49.9734 31.056 50.4054 32.064C50.8534 33.056 51.0774 34.232 51.0774 35.592C51.0774 36.952 50.8534 38.136 50.4054 39.144C49.9734 40.136 49.3494 40.912 48.5334 41.472C47.7334 42.016 46.7814 42.288 45.6774 42.288ZM44.9814 39.792C45.8614 39.792 46.5654 39.424 47.0934 38.688C47.6214 37.936 47.8854 36.904 47.8854 35.592C47.8854 34.264 47.6214 33.232 47.0934 32.496C46.5814 31.76 45.8854 31.392 45.0054 31.392C44.3494 31.392 43.7814 31.56 43.3014 31.896C42.8374 32.216 42.4774 32.688 42.2214 33.312C41.9814 33.936 41.8614 34.696 41.8614 35.592C41.8614 36.456 41.9814 37.208 42.2214 37.848C42.4774 38.472 42.8374 38.952 43.3014 39.288C43.7654 39.624 44.3254 39.792 44.9814 39.792Z" fill="black"/>
</svg>
